<svg width="119" height="131" viewBox="0 0 119 131" fill="none" xmlns="http://www.w3.org/2000/svg">
<g filter="url(#filter0_d_3_76)">
<rect y="8.27637" width="110" height="123" rx="15" transform="rotate(-4.315 0 8.27637)" fill="#1B1B1B"/>
<path d="M34 99L22.5 30L90 24.5L90 95L62.5 105L34 99Z" stroke="url(#paint0_linear_3_76)" stroke-width="3"/>
<path d="M79.5 49L79.5 41L79 39.5L35.5 43L41.5 69.5L69.5 67L69.5 78.5L61.5 81.5L50 78.5L50 72.5L41.5 74L43.5 87L61.5 90L78.5 83.5L78.5 57.5L48.5 59L47 51L79.5 49Z" stroke="url(#paint1_linear_3_76)" stroke-width="3"/>
</g>
<defs>
<filter id="filter0_d_3_76" x="0" y="0" width="118.943" height="130.928" filterUnits="userSpaceOnUse" color-interpolation-filters="sRGB">
<feFlood flood-opacity="0" result="BackgroundImageFix"/>
<feColorMatrix in="SourceAlpha" type="matrix" values="0 0 0 0 0 0 0 0 0 0 0 0 0 0 0 0 0 0 127 0" result="hardAlpha"/>
<feOffset/>
<feComposite in2="hardAlpha" operator="out"/>
<feColorMatrix type="matrix" values="0 0 0 0 0.890196 0 0 0 0 0.231373 0 0 0 0 0.14902 0 0 0 0.1 0"/>
<feBlend mode="normal" in2="BackgroundImageFix" result="effect1_dropShadow_3_76"/>
<feBlend mode="normal" in="SourceGraphic" in2="effect1_dropShadow_3_76" result="shape"/>
</filter>
<linearGradient id="paint0_linear_3_76" x1="69.722" y1="-10.1983" x2="69.7223" y2="160.055" gradientUnits="userSpaceOnUse">
<stop offset="0.204168" stop-color="#E33B26"/>
<stop offset="0.986227" stop-color="#AD1A07"/>
</linearGradient>
<linearGradient id="paint1_linear_3_76" x1="66.2818" y1="17.7328" x2="66.282" y2="124.537" gradientUnits="userSpaceOnUse">
<stop offset="0.204168" stop-color="#E33B26"/>
<stop offset="0.986227" stop-color="#AD1A07"/>
</linearGradient>
</defs>
</svg>
